<svg width="66" height="42" viewBox="0 0 66 42" fill="none" xmlns="http://www.w3.org/2000/svg">
<g clip-path="url(#clip0_85_14811)">
<path opacity="0.8" d="M32.6564 1.70842C34.8384 1.1486 37.1747 0.630538 39.4477 0.768928C40.7904 0.539828 43.4435 0.702223 43.4435 2.25007C43.4435 3.52826 39.8417 6.55111 42.4044 6.9557C46.7947 7.64885 50.7182 3.73657 55.2533 5.21225C58.814 6.37086 62.3535 8.10168 64.4901 11.3905C65.9249 13.5992 65.8012 15.4785 65.7106 17.9412C65.5496 22.3198 62.8541 26.1522 59.7727 28.9097C53.8107 34.2449 47.5448 38.8717 39.6169 40.4537C34.5522 41.4643 28.8134 41.2432 23.7825 40.1152C22.2347 39.7681 14.1568 38.6519 15.8818 35.4434C16.5749 34.1542 23.1544 29.6201 22.463 28.5881C21.09 26.5386 16.2306 26.4669 14.1664 25.9983C10.3715 25.1367 5.8962 24.5877 2.50508 22.5114C-4.70817 18.0948 5.58 11.6795 9.26768 9.88403C16.575 6.32614 24.8132 3.72064 32.6564 1.70842Z" fill="url(#paint0_linear_85_14811)"/>
<path d="M22.2625 4.11C22.2625 2.40758 23.6426 1.0275 25.345 1.0275H38.6225C40.3249 1.0275 41.705 2.40758 41.705 4.11V30.3663C41.705 32.0687 40.3249 33.4488 38.6225 33.4488H25.345C23.6426 33.4488 22.2625 32.0687 22.2625 30.3663V4.11Z" stroke="#1A1C1D" stroke-width="2.055"/>
<path d="M28.0532 1.2356V2.82188C28.0532 3.95682 28.9733 4.87688 30.1082 4.87688H34.5169C35.6518 4.87688 36.5719 3.95682 36.5719 2.82188V1.2356" stroke="#1A1C1D" stroke-width="2.055"/>
<path d="M30.4581 34.4768V35.7129C30.4581 36.7369 31.2882 37.567 32.3122 37.567V37.567C33.3362 37.567 34.1663 36.7369 34.1663 35.7129V34.4768" stroke="#1A1C1D" stroke-width="2.055"/>
<path d="M33.3367 17.6415L32.2465 20.8146C32.062 19.9757 31.4374 19.3034 30.6292 19.0491L31.6421 16.0228C31.9224 16.7919 32.5496 17.3953 33.3367 17.6415Z" fill="#1A1C1D" stroke="#1A1C1D" stroke-width="2.055"/>
<path d="M32.3138 37.5674V37.5674C32.3138 38.762 33.2822 39.7305 34.4769 39.7305H51.473" stroke="#1A1C1D" stroke-width="2.055"/>
</g>
<defs>
<linearGradient id="paint0_linear_85_14811" x1="32.88" y1="0.685059" x2="32.88" y2="41.1001" gradientUnits="userSpaceOnUse">
<stop stop-color="#E2F4E3"/>
<stop offset="1" stop-color="#E4F0F3"/>
</linearGradient>
<clipPath id="clip0_85_14811">
<rect width="65.76" height="41.1004" fill="white"/>
</clipPath>
</defs>
</svg>
